<svg width="468" height="412" viewBox="0 0 468 412" fill="none" xmlns="http://www.w3.org/2000/svg">
<rect x="49.3887" y="58.7175" width="153.488" height="76.8431" rx="8" stroke="white" stroke-width="4"/>
<line x1="49.3892" y1="73.184" x2="202.878" y2="73.184" stroke="white" stroke-width="4"/>
<rect x="58.698" y="80.8433" width="34.3721" height="43.5695" rx="2" stroke="white" stroke-width="4"/>
<rect x="2" y="148" width="200.997" height="129.901" rx="8" stroke="white" stroke-width="4"/>
<line x1="2" y1="164.144" x2="203" y2="164.144" stroke="white" stroke-width="4"/>
<line x1="78.7441" y1="175.274" x2="153.661" y2="175.274" stroke="white" stroke-width="4"/>
<line x1="78.7441" y1="184.422" x2="153.661" y2="184.422" stroke="white" stroke-width="4"/>
<line x1="78.7441" y1="191.74" x2="153.661" y2="191.74" stroke="white" stroke-width="4"/>
<line x1="78.7441" y1="200.888" x2="153.661" y2="200.888" stroke="white" stroke-width="4"/>
<line x1="78.7441" y1="221.013" x2="153.661" y2="221.013" stroke="white" stroke-width="4"/>
<line x1="78.7441" y1="230.161" x2="153.661" y2="230.161" stroke="white" stroke-width="4"/>
<line x1="78.7441" y1="239.309" x2="153.661" y2="239.309" stroke="white" stroke-width="4"/>
<line x1="78.7441" y1="257.605" x2="153.661" y2="257.605" stroke="white" stroke-width="4"/>
<line x1="78.7441" y1="211.865" x2="115.289" y2="211.865" stroke="white" stroke-width="4"/>
<line x1="78.7441" y1="248.457" x2="95.1893" y2="248.457" stroke="white" stroke-width="4"/>
<line x1="97.0166" y1="248.457" x2="122.598" y2="248.457" stroke="white" stroke-width="4"/>
<line x1="126.252" y1="248.457" x2="153.661" y2="248.457" stroke="white" stroke-width="4"/>
<line x1="118.943" y1="211.865" x2="153.661" y2="211.865" stroke="white" stroke-width="4"/>
<rect x="11.1362" y="171.785" width="62.1262" height="98.7982" rx="2" stroke="white" stroke-width="4"/>
<rect x="160.97" y="173.614" width="34.7176" height="43.9103" rx="2" stroke="white" stroke-width="4"/>
<rect x="228.458" y="2" width="237.542" height="408" rx="8" stroke="white" stroke-width="4"/>
<rect x="239.422" y="27.6145" width="213.787" height="365.919" rx="8" stroke="white" stroke-width="4"/>
<rect x="106" y="286" width="300" height="4" rx="2" fill="white"/>
<rect x="127.927" y="286" width="124" height="4" rx="2" transform="rotate(90 127.927 286)" fill="white"/>
<rect x="391.05" y="286" width="124" height="4" rx="2" transform="rotate(90 391.05 286)" fill="white"/>
<path d="M267 232C267 229.791 268.791 228 271 228H364C366.209 228 368 229.791 368 232V284H267V232Z" stroke="#969393" stroke-width="4"/>
<rect x="264" y="284" width="107" height="2" fill="#969393"/>
<rect x="141" y="320" width="80" height="24.1463" stroke="white" stroke-width="4"/>
<rect x="141" y="350.732" width="80" height="24.1463" stroke="white" stroke-width="4"/>
<rect x="141" y="383.659" width="80" height="26.3415" stroke="white" stroke-width="4"/>
<ellipse cx="180" cy="365" rx="3" ry="3.29268" fill="white"/>
<ellipse cx="180" cy="397.927" rx="3" ry="3.29268" fill="white"/>
<ellipse cx="180" cy="332.073" rx="3" ry="3.29268" fill="white"/>
</svg>
