<svg width="48" height="48" viewBox="0 0 48 48" fill="none" xmlns="http://www.w3.org/2000/svg">
<g clip-path="url(#clip0_897_1269)">
<path d="M30 3.99993L18 3.99993L18 7.99993L30 7.99993L30 3.99993ZM26.92 43.6999C32.42 42.5799 36.8 38.0799 37.78 32.5399C38.8 26.7599 36.26 21.4999 32 18.5199L32 11.9999L16 11.9999L16 18.5199C12.38 21.0599 9.99996 25.2399 9.99996 29.9999C9.99996 38.6799 17.94 45.5399 26.92 43.6999ZM18.3 21.7999L20 20.5999L20 15.9999L28 15.9999L28 20.5999L29.7 21.7999C32.4 23.6799 34 26.7399 34 29.9999C34 35.5199 29.52 39.9999 24 39.9999C18.48 39.9999 14 35.5199 14 29.9999C14 26.7399 15.6 23.6799 18.3 21.7999Z" fill="white"/>
</g>
<defs>
<clipPath id="clip0_897_1269">
<rect width="48" height="48" fill="white" transform="translate(48 48) rotate(180)"/>
</clipPath>
</defs>
</svg>
