<svg width="181" height="178" viewBox="0 0 181 178" fill="none" xmlns="http://www.w3.org/2000/svg">
<path fill-rule="evenodd" clip-rule="evenodd" d="M103.685 9.01942C121.673 6.0561 141.999 -6.26923 157.037 4.03893C172.173 14.4142 167.515 38.0695 172.021 55.8613C175.632 70.1204 181.956 83.5087 180.878 98.1786C179.749 113.551 174.549 128.22 165.774 140.891C156.29 154.586 144.569 167.362 128.955 173.159C112.817 179.152 94.2414 179.991 78.3597 173.35C63.0899 166.964 57.1468 149.167 44.9148 138.015C30.4513 124.829 1.74223 121.481 0.0749951 101.978C-1.62838 82.0513 26.1306 73.1674 37.9954 57.07C46.7653 45.1716 48.617 28.6606 60.5462 19.9346C72.7664 10.9958 88.7472 11.4803 103.685 9.01942Z" fill="black"/>
</svg>
